# xmcd
#
# Track frame offsets: 
#        150
#        12453
#        25698
#        40139
#        51466
#        64828
#        79252
#        98986
#        117748
#        136429
#        154596
#        168298
#
# Disc length: 2432 seconds
#
# Revision: 0
# Processed by: cddbd v1.5.2PL0 Copyright (c) Steve Scherf et al.
# Submitted via: ExactAudioCopy v1.0b3
#
DISCID=a1097e0c
DTITLE=Blood Sweat and Kiers - Mr. Sax Man
DYEAR=2011
DGENRE=Blues
TTITLE0=Hey, Mr Sax Man
TTITLE1=Hot Rod
TTITLE2=Rock'n'Roll
TTITLE3=King of the Road
TTITLE4=Big Daddy
TTITLE5=Can't Help Falling in Love
TTITLE6=Te Ni Nee Ni Nu
TTITLE7=Jambalaya
TTITLE8=Ain't that Fine
TTITLE9=Perry Mason Theme
TTITLE10=Once is Enough
TTITLE11=Wipe Out
EXTD=
EXTT0=
EXTT1=
EXTT2=
EXTT3=
EXTT4=
EXTT5=
EXTT6=
EXTT7=
EXTT8=
EXTT9=
EXTT10=
EXTT11=
PLAYORDER=
